<?xml version="1.0" encoding="utf-8"?>
<!-- Generator: Adobe Illustrator 27.3.1, SVG Export Plug-In . SVG Version: 6.00 Build 0)  -->
<svg version="1.1" id="Layer_1" xmlns="http://www.w3.org/2000/svg" xmlns:xlink="http://www.w3.org/1999/xlink" x="0px" y="0px"
	 viewBox="0 0 63.1 21.5" style="enable-background:new 0 0 63.1 21.5;" xml:space="preserve">
<style type="text/css">
	.st0{fill:url(#SVGID_1_);}
	.st1{display:none;fill:url(#SVGID_00000115513889285268041890000015321082848795113107_);}
	.st2{display:none;fill:url(#SVGID_00000112622156376842325450000011373503446460192439_);}
	.st3{fill:url(#SVGID_00000139259872601364333440000017722334350336443777_);}
	.st4{fill:url(#SVGID_00000121971621734826520600000010082205991298956712_);}
	.st5{fill:url(#SVGID_00000167391934911532605470000007808517428143673269_);}
	.st6{fill:url(#SVGID_00000023273700631078485770000010167940548362093999_);}
	.st7{fill:url(#SVGID_00000006670771163732802530000006702011741455578815_);}
	.st8{fill:url(#SVGID_00000078033584621004414240000010739737143808615855_);}
	.st9{fill:url(#SVGID_00000183208791665778239440000004540184464543604393_);}
	.st10{fill:#2AC0D7;}
</style>
<g>
	<g>
		<g>
			<g>
				<g>
					<g>
						<g>
							<linearGradient id="SVGID_1_" gradientUnits="userSpaceOnUse" x1="33.8546" y1="15.8945" x2="33.6867" y2="3.471">
								<stop  offset="0" style="stop-color:#5DC9E4"/>
								<stop  offset="1" style="stop-color:#035293"/>
							</linearGradient>
							<path class="st0" d="M37.2,12.1c-0.9,0-1.6-0.6-1.8-1.5c0-0.1,0.1-0.3,0.1-0.4c0-0.1,0.1-0.3,0.1-0.4c0,0,0,0,0,0
								c0.1-0.5,0.2-1,0.2-1.5c0-0.2,0-0.5,0-0.7c-0.1-1.3-0.7-2.5-1.5-3.5c-1-1.2-2.5-2-4.2-2.1v1.2c0,0.9,0.5,1.7,1.2,2.2
								c1,0.6,1.6,1.7,1.6,2.9c0,0.7-0.2,1.3-0.6,1.9c-0.2,0.2-0.4,0.5-0.6,0.7c-0.5,0.4-1,0.7-1.7,0.8v2.3c0,0.4,0.3,0.6,0.7,0.6
								c0.8-0.2,1.6-0.5,2.2-1c0,0,0,0,0.1,0c0.2-0.2,0.5-0.4,0.7-0.5c0,0,0.1-0.1,0.1-0.1c0.8,1,2,1.6,3.3,1.6h0.3v-2.4H37.2z"/>
							
								<linearGradient id="SVGID_00000080896513539900489810000014572577232450950281_" gradientUnits="userSpaceOnUse" x1="29.5504" y1="15.9526" x2="29.3825" y2="3.5291">
								<stop  offset="0" style="stop-color:#5DC9E4"/>
								<stop  offset="1" style="stop-color:#035293"/>
							</linearGradient>
							<path style="display:none;fill:url(#SVGID_00000080896513539900489810000014572577232450950281_);" d="M29.4,7.2
								c-0.6,0-1.1,0.5-1.1,1.1c0,0.6,0.5,1.1,1.1,1.1c0.6,0,1.1-0.5,1.1-1.1C30.6,7.8,30.1,7.2,29.4,7.2z M29.4,9.3
								c-0.5,0-0.9-0.4-0.9-0.9c0-0.5,0.4-0.9,0.9-0.9c0.5,0,0.9,0.4,0.9,0.9C30.3,8.9,29.9,9.3,29.4,9.3z"/>
							
								<linearGradient id="SVGID_00000172400073839729546440000008318920604394932661_" gradientUnits="userSpaceOnUse" x1="29.5504" y1="15.9526" x2="29.3825" y2="3.5291">
								<stop  offset="0" style="stop-color:#5DC9E4"/>
								<stop  offset="1" style="stop-color:#035293"/>
							</linearGradient>
							<path style="display:none;fill:url(#SVGID_00000172400073839729546440000008318920604394932661_);" d="M30.1,8.4
								c0,0.4-0.3,0.7-0.7,0.7c-0.4,0-0.7-0.3-0.7-0.7c0-0.4,0.3-0.7,0.7-0.7C29.8,7.7,30.1,8,30.1,8.4z"/>
							
								<linearGradient id="SVGID_00000104690730459041954770000001897818487383134130_" gradientUnits="userSpaceOnUse" x1="26.1217" y1="15.999" x2="25.9538" y2="3.5755">
								<stop  offset="0" style="stop-color:#5DC9E4"/>
								<stop  offset="1" style="stop-color:#035293"/>
							</linearGradient>
							<path style="fill:url(#SVGID_00000104690730459041954770000001897818487383134130_);" d="M28.8,5V2.8c0-0.4-0.3-0.6-0.7-0.6
								c-2.9,0.6-5.1,3.2-5.1,6.2c0,3.3,2.5,6,5.7,6.3v-1.2c0-0.9-0.5-1.7-1.2-2.2c-1-0.6-1.6-1.7-1.6-2.9C26,6.7,27.2,5.3,28.8,5z
								 M24.7,8.3c-0.1,1.5,0.6,2.9,1.7,3.8c0.2-0.1,0.3-0.2,0.6-0.2c0.5,0,0.9,0.4,0.9,0.9c0,0.5-0.4,0.9-0.9,0.9
								c-0.5,0-0.9-0.4-0.9-0.9c0-0.1,0-0.1,0-0.2c-1.3-1-2.1-2.6-2-4.4c0.1-1.7,0.9-3.2,2.2-4.1c0-0.1,0-0.1,0-0.2
								c0-0.5,0.4-0.9,0.9-0.9c0.5,0,0.9,0.4,0.9,0.9s-0.4,0.9-0.9,0.9c-0.2,0-0.4-0.1-0.6-0.2C25.5,5.5,24.8,6.9,24.7,8.3z"/>
						</g>
						<g>
							
								<linearGradient id="SVGID_00000121279610395437208810000005041811519262720684_" gradientUnits="userSpaceOnUse" x1="15.2994" y1="16.1452" x2="15.1315" y2="3.7217">
								<stop  offset="0" style="stop-color:#5DC9E4"/>
								<stop  offset="1" style="stop-color:#035293"/>
							</linearGradient>
							<path style="fill:url(#SVGID_00000121279610395437208810000005041811519262720684_);" d="M18.1,9.1l2.2-4.3
								c0.2,0.1,0.4,0.1,0.6,0.1c0.8,0,1.4-0.6,1.4-1.4c0-0.8-0.6-1.4-1.4-1.4c-0.8,0-1.4,0.6-1.4,1.4c0,0.5,0.3,1,0.7,1.2L18,9.1
								c0,0-0.1,0-0.1,0c-0.3,0-0.6,0.2-0.6,0.6c0,0.2,0.1,0.3,0.2,0.4L16,13c-0.1,0-0.1,0-0.2,0c0,0,0,0,0,0v-2.6
								c0.2-0.2,0.4-0.5,0.4-0.7c0-0.3-0.1-0.5-0.4-0.7V4.6c0.2-0.7-0.1-1.5-0.8-1.9l0,0c-0.8-0.4-1.8-0.1-2.2,0.7l-4.5,9.1
								c-0.4,0.8-0.1,1.8,0.7,2.2l0,0c0.8,0.4,1.8,0.1,2.2-0.7l1.6-3.2H15c0.2,0,0.5-0.1,0.7-0.2V13c-0.4,0.1-0.8,0.5-0.8,0.9
								c0,0.5,0.4,0.9,0.9,0.9c0.5,0,0.9-0.4,0.9-0.9c0-0.4-0.3-0.8-0.7-0.9l1.5-2.9c0.1,0,0.2,0.1,0.3,0.1c0.3,0,0.6-0.2,0.6-0.6
								C18.5,9.4,18.3,9.2,18.1,9.1z M15,8.6h-1.2l1.9-3.7v3.9C15.5,8.7,15.3,8.6,15,8.6z"/>
							
								<linearGradient id="SVGID_00000112596254634179728620000014863840293456242878_" gradientUnits="userSpaceOnUse" x1="21.0396" y1="16.0676" x2="20.8717" y2="3.6442">
								<stop  offset="0" style="stop-color:#5DC9E4"/>
								<stop  offset="1" style="stop-color:#035293"/>
							</linearGradient>
							<path style="fill:url(#SVGID_00000112596254634179728620000014863840293456242878_);" d="M20.9,5.7L20.9,5.7
								c-0.6,0-1.1,0.5-1.1,1.1l0.1,7c0,0.6,0.5,1.1,1.1,1.1l0,0c0.6,0,1.1-0.5,1.1-1.1l-0.1-7C22,6.1,21.5,5.6,20.9,5.7z"/>
						</g>
					</g>
					<g>
						<g>
							
								<linearGradient id="SVGID_00000180340707829810195160000002095524604501680778_" gradientUnits="userSpaceOnUse" x1="29.5571" y1="15.9525" x2="29.3892" y2="3.5291">
								<stop  offset="0" style="stop-color:#5DC9E4"/>
								<stop  offset="1" style="stop-color:#035293"/>
							</linearGradient>
							<path style="fill:url(#SVGID_00000180340707829810195160000002095524604501680778_);" d="M29.9,8.4c0,0.2-0.2,0.4-0.4,0.4
								c-0.2,0-0.4-0.2-0.4-0.4S29.2,8,29.5,8C29.7,8,29.9,8.2,29.9,8.4z"/>
						</g>
						
							<linearGradient id="SVGID_00000040575907309842655080000016484289612169192590_" gradientUnits="userSpaceOnUse" x1="30.2309" y1="15.9434" x2="30.063" y2="3.5199">
							<stop  offset="0" style="stop-color:#5DC9E4"/>
							<stop  offset="1" style="stop-color:#035293"/>
						</linearGradient>
						<path style="fill:url(#SVGID_00000040575907309842655080000016484289612169192590_);" d="M30.4,8.2c-0.1-0.3-0.3-0.5-0.5-0.7
							c0,0-0.1,0-0.1,0c0,0,0,0.1,0,0.1c0.2,0.1,0.4,0.3,0.5,0.6c0.1,0.2,0,0.4-0.1,0.6c0,0,0,0,0,0c-0.1,0-0.2,0.1-0.2,0.2
							c0,0.1,0.1,0.2,0.2,0.2c0.1,0,0.2-0.1,0.2-0.2c0,0,0-0.1,0-0.1C30.5,8.7,30.5,8.4,30.4,8.2z M30.2,9C30.2,9,30.2,9,30.2,9
							c-0.1-0.1,0-0.1,0-0.1C30.2,8.9,30.3,9,30.2,9C30.3,9,30.2,9,30.2,9z"/>
						
							<linearGradient id="SVGID_00000067221761846399673420000018356382706726565774_" gradientUnits="userSpaceOnUse" x1="29.2923" y1="15.9561" x2="29.1244" y2="3.5326">
							<stop  offset="0" style="stop-color:#5DC9E4"/>
							<stop  offset="1" style="stop-color:#035293"/>
						</linearGradient>
						<path style="fill:url(#SVGID_00000067221761846399673420000018356382706726565774_);" d="M29.9,9.3
							C29.9,9.2,29.8,9.2,29.9,9.3c-0.1,0-0.2,0-0.2,0c-0.3,0.1-0.7,0-0.9-0.3c0,0,0,0,0-0.1c0-0.1-0.1-0.2-0.2-0.2
							c-0.1,0-0.2,0.1-0.2,0.2C28.5,9,28.6,9,28.6,9c0,0,0,0,0,0c0.2,0.3,0.5,0.4,0.8,0.4c0.1,0,0.2,0,0.2,0
							C29.8,9.4,29.8,9.4,29.9,9.3C29.9,9.3,29.9,9.3,29.9,9.3z M28.6,8.9C28.6,8.9,28.6,8.8,28.6,8.9c0.1-0.1,0.1,0,0.1,0
							C28.7,8.9,28.7,8.9,28.6,8.9C28.6,8.9,28.6,8.9,28.6,8.9z"/>
						
							<linearGradient id="SVGID_00000171686252340312868840000007284661018546084261_" gradientUnits="userSpaceOnUse" x1="29.1097" y1="15.9586" x2="28.9418" y2="3.5351">
							<stop  offset="0" style="stop-color:#5DC9E4"/>
							<stop  offset="1" style="stop-color:#035293"/>
						</linearGradient>
						<path style="fill:url(#SVGID_00000171686252340312868840000007284661018546084261_);" d="M29.4,7.4c-0.1,0-0.1,0-0.1,0.1
							c0,0,0,0,0,0c-0.4,0.1-0.8,0.5-0.8,1c0,0,0,0.1,0.1,0.1h0c0,0,0.1,0,0.1-0.1c0-0.4,0.3-0.7,0.7-0.8c0,0,0,0,0,0
							c0,0,0.1,0.1,0.1,0.1c0.1,0,0.2-0.1,0.2-0.2S29.5,7.4,29.4,7.4z M29.4,7.6C29.4,7.6,29.3,7.5,29.4,7.6c-0.1-0.1,0-0.1,0-0.1
							C29.4,7.5,29.4,7.5,29.4,7.6C29.4,7.5,29.4,7.6,29.4,7.6z"/>
					</g>
				</g>
			</g>
		</g>
	</g>
	<g>
		<g>
			<path class="st10" d="M4.6,15.6c0.3,0,0.4,0.1,0.6,0.4l1.7,3.1c0,0.1,0,0.1-0.1,0.1H6.2c-0.1,0-0.1,0-0.1-0.1l-0.4-0.7H3.3
				l-0.4,0.7c0,0.1-0.1,0.1-0.1,0.1H2.1C2,19.2,2,19.2,2,19.1L3.7,16c0.2-0.3,0.3-0.4,0.5-0.4H4.6z M3.6,17.9h1.8l-0.8-1.5
				c0,0,0,0-0.1,0h0c0,0,0,0-0.1,0L3.6,17.9z"/>
			<path class="st10" d="M7.9,15.4c0.1,0,0.1,0,0.1,0.1V16c0,0.1,0,0.1-0.1,0.1H7.4c-0.1,0-0.1,0-0.1-0.1v-0.5c0-0.1,0-0.1,0.1-0.1
				H7.9z M7.9,16.4c0.1,0,0.1,0,0.1,0.1v2.6c0,0.1,0,0.1-0.1,0.1H7.4c-0.1,0-0.1,0-0.1-0.1v-2.6c0-0.1,0-0.1,0.1-0.1H7.9z"/>
			<path class="st10" d="M11.7,15.6c1,0,1.4,0.4,1.4,1.4v0.8c0,0.8-0.3,1.2-1,1.3l0.6,0.8c0,0,0,0.1-0.1,0.1H12
				c-0.1,0-0.1,0-0.1-0.1l-0.6-0.9h-1.2c-1,0-1.4-0.4-1.4-1.4V17c0-1,0.4-1.4,1.4-1.4H11.7z M9.5,17.7c0,0.5,0.2,0.7,0.7,0.7h1.5
				c0.5,0,0.7-0.2,0.7-0.7V17c0-0.5-0.2-0.7-0.7-0.7h-1.5c-0.5,0-0.7,0.2-0.7,0.7V17.7z"/>
			<path class="st10" d="M17.1,16.4C17.1,16.4,17.1,16.4,17.1,16.4l0.1,0.5c0,0.1,0,0.1-0.1,0.1h-2.3c-0.2,0-0.3,0.1-0.3,0.2v0.1
				c0,0.1,0.1,0.2,0.3,0.2h1.7c0.6,0,0.8,0.2,0.8,0.7v0.3c0,0.5-0.2,0.7-0.8,0.7h-2.6c-0.1,0-0.1,0-0.1-0.1v-0.4
				c0-0.1,0-0.1,0.1-0.1h2.4c0.2,0,0.3-0.1,0.3-0.2v-0.1c0-0.1-0.1-0.2-0.3-0.2h-1.7c-0.6,0-0.8-0.2-0.8-0.7v-0.2
				c0-0.4,0.2-0.7,0.8-0.7H17.1z"/>
			<path class="st10" d="M20.5,16.4c0.9,0,1.2,0.3,1.2,1v0.7c0,0.7-0.3,1-1.2,1H19c-0.9,0-1.2-0.3-1.2-1v-0.7c0-0.7,0.3-1,1.2-1
				H20.5z M18.5,18.1c0,0.4,0.1,0.6,0.6,0.6h1.3c0.4,0,0.6-0.1,0.6-0.6v-0.5c0-0.4-0.1-0.6-0.6-0.6h-1.3c-0.4,0-0.6,0.1-0.6,0.6
				V18.1z"/>
			<path class="st10" d="M22.7,16.4v-0.1c0-0.7,0.2-1,1-1h0.6c0.1,0,0.1,0,0.1,0.1v0.4c0,0.1,0,0.1-0.1,0.1h-0.5
				c-0.3,0-0.4,0.1-0.4,0.4v0.1h0.9c0.1,0,0.1,0,0.1,0.1v0.4c0,0.1,0,0.1-0.1,0.1h-0.9v2.1c0,0.1,0,0.1-0.1,0.1h-0.5
				c-0.1,0-0.1,0-0.1-0.1V17h-0.5c-0.1,0-0.1,0-0.1-0.1v-0.4c0-0.1,0-0.1,0.1-0.1H22.7z"/>
			<path class="st10" d="M25.3,16.4v-0.7c0-0.1,0-0.1,0.1-0.1h0.5c0.1,0,0.1,0,0.1,0.1v0.7h0.9c0.1,0,0.1,0,0.1,0.1v0.4
				c0,0.1,0,0.1-0.1,0.1H26v1.2c0,0.3,0.1,0.4,0.4,0.4H27c0.1,0,0.1,0,0.1,0.1v0.4c0,0.1,0,0.1-0.1,0.1h-0.6c-0.8,0-1-0.3-1-1V17
				h-0.5c-0.1,0-0.1,0-0.1-0.1v-0.4c0-0.1,0-0.1,0.1-0.1H25.3z"/>
			<path class="st10" d="M31.4,15.6c0.1,0,0.1,0,0.1,0.1v0.5c0,0.1,0,0.1-0.1,0.1h-1.6v2.8c0,0.1,0,0.1-0.1,0.1h-0.6
				c-0.1,0-0.1,0-0.1-0.1v-2.8h-1.6c-0.1,0-0.1,0-0.1-0.1v-0.5c0-0.1,0-0.1,0.1-0.1H31.4z"/>
			<path class="st10" d="M34.5,16.4c0.7,0,0.9,0.2,0.9,0.8v0.5c0,0.2-0.1,0.3-0.3,0.3h-2.6v0.1c0,0.3,0.1,0.5,0.6,0.5h2.2
				c0.1,0,0.1,0,0.1,0.1v0.4c0,0.1,0,0.1-0.1,0.1H33c-0.9,0-1.2-0.3-1.2-1v-0.7c0-0.7,0.3-1,1.2-1H34.5z M32.5,17.6h2.1
				c0.1,0,0.1,0,0.1-0.1v-0.2c0-0.2-0.1-0.3-0.3-0.3h-1.3c-0.4,0-0.6,0.1-0.6,0.5V17.6z"/>
			<path class="st10" d="M39.1,16.4C39.2,16.4,39.2,16.4,39.1,16.4l0.1,0.5c0,0.1,0,0.1-0.1,0.1h-2c-0.4,0-0.6,0.1-0.6,0.6v0.5
				c0,0.4,0.1,0.6,0.6,0.6h2c0.1,0,0.1,0,0.1,0.1v0.4c0,0.1,0,0.1-0.1,0.1H37c-0.9,0-1.2-0.3-1.2-1v-0.7c0-0.7,0.3-1,1.2-1H39.1z"/>
			<path class="st10" d="M40.3,15.4c0.1,0,0.1,0,0.1,0.1v0.9h1.9c0.9,0,1.2,0.3,1.2,1v1.7c0,0.1,0,0.1-0.1,0.1H43
				c-0.1,0-0.1,0-0.1-0.1v-1.5c0-0.4-0.1-0.6-0.5-0.6h-1.9v2.1c0,0.1,0,0.1-0.1,0.1h-0.5c-0.1,0-0.1,0-0.1-0.1v-3.6
				c0-0.1,0-0.1,0.1-0.1H40.3z"/>
		</g>
	</g>
</g>
</svg>
